# xmcd
# 
# Track frame offsets:
#     150
#     16475
#     27290
#     40997
#     64950
#     85885
#     95250
#     105840
#     123067
#     137500
#     152302
#     174030
# 
# Disc length: 2595
# 
# Revision: 2
# Processed by: cddbd v1.5.2PL0 Copyright (c) Steve Scherf et al.
# Submitted via: BonkEnc v1.0.8
# 
DISCID=7f0a210c
DTITLE=Spencer Dickinson - Spencer Dickinson
DYEAR=2001
DGENRE=Rock
TTITLE0=That's A Drag
TTITLE1=I'm Not Ready
TTITLE2=Zigaboo
TTITLE3=Body (My Only Friend)
TTITLE4=Primitive
TTITLE5=Sat Morn Cartoons
TTITLE6=(Chug Chug) It's Not OK
TTITLE7=Why!?
TTITLE8=Flood (The Awful Truth The Living End)
TTITLE9=Away Baby
TTITLE10=Cryin'
TTITLE11=Book Of Sorrow
EXTD=YEAR: 2001
EXTT0=
EXTT1=
EXTT2=
EXTT3=
EXTT4=
EXTT5=
EXTT6=
EXTT7=
EXTT8=
EXTT9=
EXTT10=
EXTT11=
PLAYORDER=
